<svg fill="#FFFFFF" xmlns="http://www.w3.org/2000/svg" data-name="Layer 1" viewBox="0 0 100 100" x="0px" y="0px"><title>calendar</title><path d="M91.33325,14h-5.4563v3.23242a7.7001,7.7001,0,1,1-13.40039-.00049V14H56.877v3.23242a7.7001,7.7001,0,1,1-13.40039-.00049V14H27.877v3.23242a7.7001,7.7001,0,1,1-13.40039-.00049V14H8.66675A3.66666,3.66666,0,0,0,5,17.66669V33.15H95V17.66669A3.66666,3.66666,0,0,0,91.33325,14Z"></path><path d="M21.17651,25a3.98166,3.98166,0,0,0,3-6.62048V7.92407A2.924,2.924,0,0,0,21.25244,5h-.15185a2.924,2.924,0,0,0-2.92408,2.92407V18.37952a3.98166,3.98166,0,0,0,3,6.62048Z"></path><path d="M79.17651,25a3.98166,3.98166,0,0,0,3-6.62048V7.92407A2.924,2.924,0,0,0,79.25244,5h-.15185a2.924,2.924,0,0,0-2.92408,2.92407V18.37952a3.98166,3.98166,0,0,0,3,6.62048Z"></path><path d="M50.17651,25a3.98166,3.98166,0,0,0,3-6.62048V7.92407A2.924,2.924,0,0,0,50.25244,5h-.15185a2.924,2.924,0,0,0-2.92408,2.92407V18.37952a3.98166,3.98166,0,0,0,3,6.62048Z"></path><path d="M5,91.33331A3.66666,3.66666,0,0,0,8.66675,95h82.6665A3.66666,3.66666,0,0,0,95,91.33331V36.85H5ZM73.61768,48.58539a1.1604,1.1604,0,0,1,1.1604-1.1604H85.3396A1.1604,1.1604,0,0,1,86.5,48.58539v5.60779a1.1604,1.1604,0,0,1-1.1604,1.1604H74.77808a1.1604,1.1604,0,0,1-1.1604-1.1604Zm0,14.5357a1.1604,1.1604,0,0,1,1.1604-1.1604H85.3396A1.1604,1.1604,0,0,1,86.5,63.12109v5.60779a1.1604,1.1604,0,0,1-1.1604,1.1604H74.77808a1.1604,1.1604,0,0,1-1.1604-1.1604Zm0,14.53571a1.1604,1.1604,0,0,1,1.1604-1.1604H85.3396A1.1604,1.1604,0,0,1,86.5,77.6568v5.60779a1.1604,1.1604,0,0,1-1.1604,1.1604H74.77808a1.1604,1.1604,0,0,1-1.1604-1.1604ZM53.57837,48.58539a1.1604,1.1604,0,0,1,1.1604-1.1604H65.30029a1.1604,1.1604,0,0,1,1.1604,1.1604v5.60779a1.1604,1.1604,0,0,1-1.1604,1.1604H54.73877a1.1604,1.1604,0,0,1-1.1604-1.1604Zm0,14.5357a1.1604,1.1604,0,0,1,1.1604-1.1604H65.30029a1.1604,1.1604,0,0,1,1.1604,1.1604v5.60779a1.1604,1.1604,0,0,1-1.1604,1.1604H54.73877a1.1604,1.1604,0,0,1-1.1604-1.1604Zm0,14.53571a1.1604,1.1604,0,0,1,1.1604-1.1604H65.30029a1.1604,1.1604,0,0,1,1.1604,1.1604v5.60779a1.1604,1.1604,0,0,1-1.1604,1.1604H54.73877a1.1604,1.1604,0,0,1-1.1604-1.1604ZM33.53931,48.58539a1.1604,1.1604,0,0,1,1.1604-1.1604H45.26123a1.1604,1.1604,0,0,1,1.1604,1.1604v5.60779a1.1604,1.1604,0,0,1-1.1604,1.1604H34.69971a1.1604,1.1604,0,0,1-1.1604-1.1604Zm0,14.5357a1.1604,1.1604,0,0,1,1.1604-1.1604H45.26123a1.1604,1.1604,0,0,1,1.1604,1.1604v5.60779a1.1604,1.1604,0,0,1-1.1604,1.1604H34.69971a1.1604,1.1604,0,0,1-1.1604-1.1604Zm0,14.53571a1.1604,1.1604,0,0,1,1.1604-1.1604H45.26123a1.1604,1.1604,0,0,1,1.1604,1.1604v5.60779a1.1604,1.1604,0,0,1-1.1604,1.1604H34.69971a1.1604,1.1604,0,0,1-1.1604-1.1604ZM13.5,63.12109a1.1604,1.1604,0,0,1,1.1604-1.1604H25.22192a1.1604,1.1604,0,0,1,1.1604,1.1604v5.60779a1.1604,1.1604,0,0,1-1.1604,1.1604H14.6604A1.1604,1.1604,0,0,1,13.5,68.72888Zm0,14.53571a1.1604,1.1604,0,0,1,1.1604-1.1604H25.22192a1.1604,1.1604,0,0,1,1.1604,1.1604v5.60779a1.1604,1.1604,0,0,1-1.1604,1.1604H14.6604A1.1604,1.1604,0,0,1,13.5,83.26459Z"></path></svg>