<svg fill="#FFFFFF" xmlns="http://www.w3.org/2000/svg" xmlns:xlink="http://www.w3.org/1999/xlink" version="1.1" x="0px" y="0px" viewBox="0 0 100 100" enable-background="new 0 0 100 100" xml:space="preserve"><path d="M93.79,48.573c-5.189,8.178-15.205,11.698-23.287,13.715c-0.582-4.435-3.098-13.226-4.795-18.483  c-2.688-8.322-7.342-20.415-15.824-20.428c-8.605-0.014-12.997,12.448-15.407,20.929c-1.457,5.123-3.648,13.534-4.024,17.877  c-8.281-2.116-18.351-5.605-24.242-13.609c-0.817,5.729,1.233,11.178,4.344,15.021c9.247,11.426,26.944,13.029,39.444,13.029  c12.501,0,30.199-1.602,39.447-13.028C92.556,59.751,94.606,54.303,93.79,48.573z M53.97,56.11L50,54.022l-3.97,2.087l0.758-4.421  l-3.212-3.131l4.439-0.645L50,43.89l1.985,4.022l4.439,0.645l-3.212,3.131L53.97,56.11z"></path></svg>