<svg fill="#FFFFFF" xmlns="http://www.w3.org/2000/svg" viewBox="0 0 64 64" x="0px" y="0px"><title>16- pen-write-create-message</title><path d="M4.59,59.41A2,2,0,0,0,6,60a1.9,1.9,0,0,0,.51-.07A2,2,0,0,0,7,60H38a2,2,0,0,0,0-4H19.32L52.24,23.07,40.93,11.76,7.84,44.84a2.06,2.06,0,0,0-.51.88L4.07,57.47A2,2,0,0,0,4.59,59.41Z"></path><path d="M58.75,10.91,53.09,5.25a4,4,0,0,0-5.65,0L43.76,8.93,55.07,20.24l3.68-3.68A4,4,0,0,0,58.75,10.91Z"></path><path d="M58,56H48a2,2,0,0,0,0,4H58a2,2,0,0,0,0-4Z"></path></svg>