<svg fill="#15599D" xmlns="http://www.w3.org/2000/svg" xmlns:xlink="http://www.w3.org/1999/xlink" version="1.1" x="0px" y="0px" viewBox="0 0 512 512" enable-background="new 0 0 512 512" xml:space="preserve"><g><path d="M254.9,327.7c3.2,3.2,8.3,3.2,11.5,0l163-163c3.2-3.2,3.2-8.3,0-11.5l-70.6-70.6c-3.2-3.2-8.3-3.2-11.5,0l-163,163   c-3.2,3.2-3.2,8.3,0,11.5L254.9,327.7z"></path><path d="M501.5,51.6l-41.1-41.1c-11.3-11.3-29.7-11.3-41.1,0l-31.9,31.9c-3.2,3.2-3.2,8.3,0,11.5l70.6,70.6c3.2,3.2,8.3,3.2,11.5,0   l31.9-31.9C512.8,81.3,512.8,62.9,501.5,51.6z"></path><path d="M117.5,408.2l88-26.5c5.6-1.1,10.8-3.9,14.8-7.9l11.5-11.5l-82.1-82.1l-11.5,11.5c-4.1,4.1-6.8,9.2-7.9,14.8l-26.5,88   C102.2,402.6,109.4,409.8,117.5,408.2z"></path><path d="M433.8,459.2H27.4c-14,0-25.4,11.4-25.4,25.4c0,14,11.4,25.4,25.4,25.4h406.4c14,0,25.4-11.4,25.4-25.4   C459.2,470.6,447.8,459.2,433.8,459.2z"></path></g></svg>