<svg fill="#FFFFFF" xmlns="http://www.w3.org/2000/svg" xmlns:xlink="http://www.w3.org/1999/xlink" version="1.1" x="0px" y="0px" viewBox="0 0 55 55" style="enable-background:new 0 0 55 55;" xml:space="preserve"><style type="text/css">
	.st0{fill-rule:evenodd;clip-rule:evenodd;fill:#FFFFFF;}
	.st1{fill-rule:evenodd;clip-rule:evenodd;}
</style><path d="M27.2,46.4l-2.1,4.4c-0.5,1,0.6,2.1,1.6,1.6l20.6-10.2h0.1l0,0l0,0h0L26.7,32c-1-0.5-2.1,0.6-1.6,1.6l2.1,4.5h-0.6  C15,35.8,5.9,32.6,5.9,20.6c0-1,0.1-2,0.2-3c-1.6,3.3-2.5,6.9-2.5,10.8c0,12.8,10.1,16.4,22.7,17.8L27.2,46.4z"></path><path d="M27.8,8.8L30.1,4c0.4-0.9-0.5-1.8-1.4-1.4L7.8,13H7.7l0,0l0,0h0l21,10.4c0.9,0.4,1.8-0.5,1.4-1.4l-2.3-4.8h0.6  c11.6,2.2,20.7,5.4,20.7,17.5c0,1-0.1,2-0.2,3c1.6-3.3,2.5-6.9,2.5-10.8C51.4,14,41.3,10.4,28.7,9L27.8,8.8z"></path></svg>