<svg fill="#FFFFFF" xmlns:dc="http://purl.org/dc/elements/1.1/" xmlns:cc="http://creativecommons.org/ns#" xmlns:rdf="http://www.w3.org/1999/02/22-rdf-syntax-ns#" xmlns:svg="http://www.w3.org/2000/svg" xmlns="http://www.w3.org/2000/svg" xmlns:sodipodi="http://sodipodi.sourceforge.net/DTD/sodipodi-0.dtd" xmlns:inkscape="http://www.inkscape.org/namespaces/inkscape" version="1.1" x="0px" y="0px" viewBox="0 0 100 100"><g transform="translate(0,-952.36218)"><path d="m 31.951678,958.48453 32.67982,7.4009 c 0.51651,-0.7459 1.0481,-1.4884 1.59034,-2.2915 0.20138,-0.2984 0.57589,-0.4719 0.93549,-0.4336 0.6875,0.2193 1.10047,0.8142 1.62152,1.3315 l 0.96667,0 c 0.57874,-0.01 1.08829,0.5781 0.99786,1.1458 -0.076,0.5253 -0.15698,1.0467 -0.24947,1.5484 l 4.61509,1.0528 c 0.55876,0.059 0.99355,0.6598 0.86981,1.204 -0.12374,0.5442 -0.77676,0.902 -1.30637,0.7159 l -4.58391,-1.0218 c -1.76239,7.361 -5.31779,12.2608 -8.76243,17.8985 0.14453,3.1975 1.06266,5.9068 2.55701,8.6394 5.43775,9.40227 8.22495,17.58477 7.70221,25.67107 -0.52321,8.0938 -4.37913,15.9573 -11.88074,24.7113 -0.30476,0.3217 -0.83801,0.4003 -1.22374,0.1804 -0.38574,-0.2199 -0.58624,-0.7168 -0.46014,-1.1404 2.02845,-6.0088 3.56854,-10.2201 3.96024,-14.1207 0.31706,-3.1573 -0.39794,-6.3578 -1.96453,-10.157 -1.68578,5.2902 -4.31787,9.6924 -7.67103,12.7582 -3.94711,3.6089 -8.81731,5.4406 -13.75172,4.8307 -0.81532,-0.097 -1.10402,-1.3984 -0.40538,-1.827 11.34635,-7.197 14.81476,-16.4152 13.97001,-25.2376 -0.84476,-8.8223 -6.18346,-17.25407 -12.72268,-22.41957 -0.29857,-0.2371 -0.43865,-0.6544 -0.34302,-1.022 l 1.37206,-5.3262 c 0.12763,-0.53 0.75649,-0.8803 1.2785,-0.7122 1.83503,0.604 3.62006,0.5968 5.05165,0.031 1.4316,-0.5656 2.52877,-1.6598 3.11831,-3.4064 0.11258,-0.3259 0.40813,-0.5827 0.74839,-0.6502 3.16042,-0.6242 5.67248,-2.1475 8.10759,-4.5521 1.55142,-1.5318 3.06063,-3.4615 4.64627,-5.6668 l -30.49701,-6.8745 c -0.9636,1.4674 -2.18791,3.1551 -3.33659,4.6759 -0.56394,0.961 -2.01883,1.256 -2.91697,0.5914 -0.89814,-0.6645 -1.02966,-2.1334 -0.2637,-2.9448 l 2.99358,-3.9637 c 0.73253,-0.8029 1.53314,-0.8536 2.55701,-0.6188 z m 13.00332,12.7581 c 2.74661,0 4.98929,2.2561 4.98929,4.9546 0,2.6984 -2.24268,4.8926 -4.98929,4.8926 -2.7466,0 -4.98928,-2.1941 -4.98928,-4.8926 0,-2.6985 2.24268,-4.9546 4.98928,-4.9546 z m -17.96143,60.38437 c 1.6533,0 2.99357,1.331 2.99357,2.9727 0,1.6419 -1.34027,2.9728 -2.99357,2.9728 -1.6533,0 -2.99357,-1.3309 -2.99357,-2.9728 0,-1.6417 1.34027,-2.9727 2.99357,-2.9727 z" style="text-indent:0;text-transform:none;direction:ltr;block-progression:tb;baseline-shift:baseline;color:#000000;enable-background:accumulate;" fill="#FFFFFF" fill-opacity="1" stroke="none" marker="none" visibility="visible" display="inline" overflow="visible"></path></g></svg>