<svg fill="#FFFFFF" xmlns="http://www.w3.org/2000/svg" xmlns:xlink="http://www.w3.org/1999/xlink" version="1.1" x="0px" y="0px" viewBox="0 0 48 48" enable-background="new 0 0 48 48" xml:space="preserve"><g><path fill="#FFFFFF" d="M28,37.2c-0.1-0.4-0.5-0.7-0.9-0.7h-7.9c-0.4,0-0.8,0.3-0.9,0.7c-0.1,0.4,0.1,0.9,0.5,1.1   c2.6,1.4,3.4,6.5,3.5,8.4c0,0.5,0.5,0.9,1,0.9h0c0.5,0,0.9-0.4,1-0.9c0.1-1.9,0.9-7,3.5-8.4C28,38.1,28.1,37.6,28,37.2z"></path><path fill="#FFFFFF" d="M42.3,0.5c-0.7-0.3-1.6,0-1.9,0.8l-9,20.8c-1.8-3-6-5.5-11.3-6.5c-3.5-0.7-7-0.5-9.8,0.4   c-3,1-4.9,2.8-5.3,5.1c-0.8,4.1,3.7,8.4,10.4,10.2c-0.4-0.9-0.6-2-0.6-3c0-4.6,3.8-8.4,8.4-8.4c4.5,0,8.2,3.6,8.3,8.1   c0.5-0.2,1-1,1.1-1.4L43,2.4C43.4,1.7,43,0.8,42.3,0.5z"></path><circle fill="#FFFFFF" cx="23.1" cy="28.2" r="5.6"></circle></g></svg>