<svg fill="#1E702D" xmlns="http://www.w3.org/2000/svg" xmlns:xlink="http://www.w3.org/1999/xlink" viewBox="0 0 24 21" version="1.1" x="0px" y="0px"><title>4 -Shirt- (Solid)</title><desc>Created with Sketch.</desc><g stroke="none" stroke-width="1" fill="none" fill-rule="evenodd"><g transform="translate(-1.000000, 0.000000)" fill="#1E702D"><path d="M15,11 L14,11 C13.447,11 13,10.552 13,10 C13,9.448 13.447,9 14,9 L15,9 C15.553,9 16,9.448 16,10 C16,10.552 15.553,11 15,11 Z M11.089,2.785 C11.324,2.453 12.018,2 12.999,2 C13.973,2 14.651,2.484 14.898,2.802 L12.999,5.333 L11.089,2.785 Z M24.803,12.439 C24.642,12.153 20.841,5.399 19.285,2.895 C18.915,2.301 18.237,2 17.271,2 L16.728,2 C16.138,0.873 14.632,0 12.999,0 C11.298,0 9.819,0.85 9.254,2 L8.729,2 C7.763,2 7.085,2.301 6.714,2.896 C5.159,5.399 1.358,12.153 1.206,12.425 C1.002,12.774 0.946,13.182 1.051,13.574 C1.147,13.941 1.375,14.252 1.692,14.457 L3.39,15.726 C3.421,15.75 3.454,15.771 3.489,15.791 C4.206,16.206 5.13,15.959 5.55,15.241 L7,12.73 L7,18 C7,18.3 7.135,18.584 7.367,18.774 C9.136,20.219 11.024,20.968 13.017,21 C14.976,20.968 16.864,20.219 18.633,18.774 C18.865,18.584 19,18.3 19,18 L19,12.73 L20.453,15.247 C20.871,15.958 21.792,16.206 22.511,15.791 C22.546,15.771 22.579,15.75 22.61,15.726 L24.308,14.457 C24.625,14.252 24.853,13.941 24.949,13.574 C25.054,13.182 24.998,12.774 24.803,12.439 Z"></path></g></g></svg>