<svg fill="#15599D" xmlns="http://www.w3.org/2000/svg" xmlns:xlink="http://www.w3.org/1999/xlink" version="1.1" x="0px" y="0px" viewBox="0 0 100 100" enable-background="new 0 0 100 100" xml:space="preserve"><g><path fill="#15599D" d="M71.779,88.497H28.22c-0.409,0-0.741,0.332-0.741,0.742v7.26c0,0.408,0.332,0.74,0.741,0.74h43.56   c0.41,0,0.742-0.332,0.742-0.74v-7.26C72.521,88.829,72.189,88.497,71.779,88.497z"></path><path fill="#15599D" d="M89.943,10.679c-0.566-0.568-1.336-0.887-2.139-0.887H77.738c0.076-1.855,0.119-3.78,0.119-5.794   c0-0.683-0.555-1.237-1.238-1.237H23.38c-0.683,0-1.237,0.554-1.237,1.237c0,2.015,0.043,3.94,0.12,5.794H12.195   c-0.803,0-1.573,0.319-2.141,0.887S9.169,12.017,9.17,12.82c0.001,0.427,0.104,10.534,8.28,17.821   c3.312,2.952,7.277,5.24,10.44,6.802c4.412,9.928,11.208,16.211,17.86,22.365c0.828,0.766,1.324,1.096,2.173,1.893   c-3.235,3.295-6.327,14.17-19.704,23.902h43.56C58.209,75.729,55.494,65.038,52.227,61.7c0.707-0.648,1.418-1.305,2.119-1.939   c6.816-6.177,13.418-12.162,17.883-22.377c3.143-1.56,7.051-3.829,10.32-6.742c8.176-7.288,8.279-17.395,8.281-17.822   C90.83,12.018,90.512,11.248,89.943,10.679z M21.476,26.125c-3.716-3.311-5.226-7.498-5.838-10.282h7.03   c0.461,4.859,1.218,9.11,2.208,12.892C23.697,27.939,22.538,27.071,21.476,26.125z M62.832,22.34l-7.625,5.538l2.912,8.962   c0.043,0.133-0.004,0.278-0.117,0.36c-0.057,0.041-0.123,0.062-0.189,0.062s-0.133-0.021-0.189-0.062l-7.624-5.538L42.375,37.2   c-0.113,0.082-0.266,0.082-0.379,0c-0.112-0.082-0.16-0.228-0.117-0.36l2.912-8.962l-7.624-5.538   c-0.112-0.082-0.16-0.228-0.117-0.36c0.044-0.133,0.167-0.223,0.307-0.223h9.424l2.912-8.964c0.087-0.266,0.526-0.266,0.613,0   l2.913,8.964h9.424c0.141,0,0.264,0.09,0.307,0.223S62.945,22.258,62.832,22.34z M78.525,26.125   c-1.047,0.932-2.186,1.786-3.346,2.571c0.971-3.773,1.713-8.011,2.164-12.854h7.018C83.748,18.63,82.238,22.815,78.525,26.125z"></path></g></svg>