<svg fill="#FFFFFF" xmlns="http://www.w3.org/2000/svg" xmlns:xlink="http://www.w3.org/1999/xlink" version="1.1" x="0px" y="0px" viewBox="0 0 52 52" enable-background="new 0 0 52 52" xml:space="preserve"><g><path d="M48.9038849,5.5805664l-0.2685547-0.5800781h-8.6298828l0.0004272-0.6304932   C40.0058746,3.0599976,38.9358673,2,37.6258698,2H14.3658581c-1.3099976,0-2.3800049,1.0599976-2.3800049,2.3699951v0.6304932   h-8.621521L3.095778,5.5805664c-0.0438232,0.0945435-4.213623,9.5333862,9.3049316,17.5578613   c1.1154175,4.1803589,4.4185181,7.6295776,8.9451904,9.1115723c-0.460022,0.8499756-0.7000122,1.7999878-0.7000122,2.7600098   c0,1.0700073,0.289978,2.0899658,0.8099976,2.9899902h10.1799927c0.5200214-0.9000244,0.8200092-1.9199829,0.8200092-2.9899902   c0-1.0999756-0.3099976-2.1600342-0.8900166-3.0900269c4.0617695-1.6468506,6.9685078-4.901062,8.0062275-8.7649536   C53.1242218,15.1270142,48.9477692,5.6751709,48.9038849,5.5805664z M4.7066178,7.0004883h7.2792354V20   c0,0.1778564,0.0146484,0.3527832,0.0222778,0.5291748C3.3461442,14.7652588,4.1699357,8.8516846,4.7066178,7.0004883z    M29.8458996,18.25l0.9099731,5.289978l-4.7600098-2.5l-4.75,2.5L22.1558971,18.25l-3.8500366-3.75l5.3200073-0.7700195   l2.3699951-4.8199463l2.3800049,4.8199463L33.6958771,14.5L29.8458996,18.25z M39.9744415,20.5404053   C39.9824371,20.3604126,39.9958649,20.1814575,39.9958649,20l0.0083008-12.9995117h7.2883911   C47.8309479,8.859314,48.6500397,14.7758179,39.9744415,20.5404053z"></path><path d="M33.9658966,40H19.0858898c-0.0100098,0.0100098-0.0100098,0.0100098-0.0100098,0.0200195L13.3258801,50h25.2299824   l-4.5700073-9.9299927C33.9858551,40.0499878,33.9759064,40.0200195,33.9658966,40z"></path></g></svg>