<svg fill="#15599D" xmlns="http://www.w3.org/2000/svg" xmlns:xlink="http://www.w3.org/1999/xlink" xmlns:sketch="http://www.bohemiancoding.com/sketch/ns" viewBox="0 0 32 32" version="1.1" x="0px" y="0px"><title>next</title><desc>Created with Sketch.</desc><g stroke="none" stroke-width="1" fill="none" fill-rule="evenodd" sketch:type="MSPage"><g sketch:type="MSArtboardGroup" fill="#15599D"><path d="M16,32 C24.836556,32 32,24.836556 32,16 C32,7.163444 24.836556,0 16,0 C7.163444,0 0,7.163444 0,16 C0,24.836556 7.163444,32 16,32 L16,32 L16,32 Z M19.5181858,15.3918714 L14.271033,8.91217729 C14.04163,8.62888822 13.6209788,8.58362026 13.3348966,8.81528502 L11.7804052,10.0740873 C11.492296,10.3073935 11.4496148,10.724735 11.6805464,11.0099119 L15.84616,16.1540163 L11.8466911,21.4614908 C11.6273145,21.7526133 11.6851559,22.1717208 11.9791488,22.3932603 L13.5766248,23.5970448 C13.8727007,23.820154 14.287971,23.7606034 14.5088094,23.4675409 L19.5266278,16.808671 C19.8870494,16.3770519 19.9363246,15.9082298 19.5181858,15.3918714 L19.5181858,15.3918714 L19.5181858,15.3918714 Z" sketch:type="MSShapeGroup"></path></g></g></svg>