<svg xmlns="http://www.w3.org/2000/svg" xmlns:xlink="http://www.w3.org/1999/xlink" width="100" height="100" viewBox="0 0 100 100"><g><g transform="translate(50 50) scale(-0.69 0.69) rotate(0) translate(-50 -50)" style="fill:#000000"><svg fill="#000000" xmlns="http://www.w3.org/2000/svg" viewBox="0 0 24 24" x="0px" y="0px"><title>_</title><g><path d="M17,19a1,1,0,0,0,.707-1.707L12.41406,12l5.293-5.293A.99989.99989,0,0,0,16.293,5.293l-6,6a.99962.99962,0,0,0,0,1.41406l6,6A.99676.99676,0,0,0,17,19Zm-6,0a1,1,0,0,0,.707-1.707L6.41406,12l5.293-5.293A.99989.99989,0,0,0,10.293,5.293l-6,6a.99962.99962,0,0,0,0,1.41406l6,6A.99676.99676,0,0,0,11,19Z"></path></g></svg></g></g></svg>