<svg fill="#15599D" xmlns="http://www.w3.org/2000/svg" xmlns:xlink="http://www.w3.org/1999/xlink" version="1.1" x="0px" y="0px" viewBox="0 0 128 128" style="enable-background:new 0 0 128 128;" xml:space="preserve"><g><path d="M93.8,126c1.7,0.1,3.2-1.3,3.2-3v-18c0-0.6,0.4-1,1-1h6c1.7,0,3-1.3,3-3V89c0-1.7-1.3-3-3-3H24c-1.7,0-3,1.3-3,3v12   c0,1.7,1.3,3,3,3h6c0.6,0,1,0.4,1,1v17.8c0,1.6,1.2,3.1,2.8,3.2c1.7,0.1,3.2-1.3,3.2-3v-18c0-0.6,0.4-1,1-1h52c0.6,0,1,0.4,1,1   v17.8C91,124.5,92.2,125.9,93.8,126z M28,98c-0.6,0-1-0.4-1-1v-4c0-0.6,0.4-1,1-1h72c0.6,0,1,0.4,1,1v4c0,0.6-0.4,1-1,1H28z"></path><path d="M16.9,59H50c0.6,0,1,0.4,1,1v18.8c0,1.6,1.2,3.1,2.8,3.2c1.7,0.1,3.2-1.3,3.2-3V51.2c0-3.8-1.9-7.4-5.1-9.5L24.7,23.3   c-4.7-3-10.5-3.3-15.5-0.8C4.4,25,1.3,29.7,1,35c0,0.3,0,0.6,0,0.9v7.2C1,51.9,8.1,59,16.9,59z M7,35.9c0-0.2,0-0.4,0-0.6   c0.2-3.2,2-6,4.9-7.5c1.4-0.7,2.9-1.1,4.4-1.1c1.8,0,3.5,0.5,5.1,1.5l27.2,18.3c1.5,1,2.4,2.7,2.4,4.5V52c0,0.6-0.4,1-1,1H16.9   C11.4,53,7,48.6,7,43.1V35.9z"></path><path d="M127,23.1v-7.2c0-0.3,0-0.6,0-0.9c-0.3-5.4-3.4-10-8.2-12.5c-5-2.5-10.8-2.3-15.5,0.8L76.1,21.7c-3.2,2.1-5.1,5.7-5.1,9.5   v47.6c0,1.6,1.2,3.1,2.8,3.2c1.7,0.1,3.2-1.3,3.2-3V40c0-0.6,0.4-1,1-1h33.1C119.9,39,127,31.9,127,23.1z"></path></g></svg>