<svg fill="#FFFFFF" xmlns="http://www.w3.org/2000/svg" data-name="Layer 1" viewBox="0 0 100 100" x="0px" y="0px"><title>TREE(GLYPH)</title><path d="M48.34,62.23a.64.64,0,0,0-.64-.64H36.32a.64.64,0,0,0-.64.64v18H24.16v3h28v-3h-3.8Z"></path><path d="M32.68,62.23a3.65,3.65,0,0,1,3.64-3.64H47.7a3.65,3.65,0,0,1,3.64,3.64v7.46H71.45a.64.64,0,0,0,.5-1l-18.89-24-1-1.27h7.19a.64.64,0,0,0,.52-1l-2.52-3.49L42.53,18.55a.64.64,0,0,0-1,0L24.25,42.37a.64.64,0,0,0,.52,1h5.86a.64.64,0,0,1,.5,1L12.07,68.65a.64.64,0,0,0,.5,1H32.68Z"></path><path d="M87.93,70.91,72.76,51.64a.64.64,0,0,1,.5-1h4.27a.64.64,0,0,0,.52-1l-13.76-19a.64.64,0,0,0-1,0L59.1,36.33l3.1,4.29a3.64,3.64,0,0,1-3,5.78h-1L74.31,66.8a3.63,3.63,0,0,1-.66,5.15H87.43A.64.64,0,0,0,87.93,70.91Z"></path><polygon points="68.92 72.69 58.65 72.69 58.65 80.22 54.84 80.22 54.84 83.22 81.88 83.22 81.88 80.22 68.92 80.22 68.92 72.69"></polygon></svg>