<svg fill="#15599D" xmlns:dc="http://purl.org/dc/elements/1.1/" xmlns:cc="http://creativecommons.org/ns#" xmlns:rdf="http://www.w3.org/1999/02/22-rdf-syntax-ns#" xmlns:svg="http://www.w3.org/2000/svg" xmlns="http://www.w3.org/2000/svg" xmlns:sodipodi="http://sodipodi.sourceforge.net/DTD/sodipodi-0.dtd" xmlns:inkscape="http://www.inkscape.org/namespaces/inkscape" viewBox="0 0 749.9492 749.78699" version="1.1" x="0px" y="0px"><g transform="translate(729.23494,-123.12727)"><path style="" d="m -398.03573,871.08533 c -66.45595,-7.9657 -126.91135,-32.32877 -183.125,-73.7979 -20.34445,-15.00822 -57.32774,-51.9915 -72.33595,-72.33595 -41.99931,-56.93233 -66.11987,-117.29815 -73.91799,-184.99234 -2.42702,-21.06851 -2.42702,-62.69681 0,-83.76533 7.79812,-67.69418 31.91868,-128.06001 73.91799,-184.99233 15.00821,-20.34445 51.9915,-57.32774 72.33595,-72.33595 56.93233,-41.99932 117.29815,-66.11988 184.99234,-73.91799 21.06851,-2.42703 62.69681,-2.42703 83.76532,0 67.69419,7.79811 128.06001,31.91867 184.99237,73.91799 20.34436,15.00821 57.327657,51.9915 72.335857,72.33595 41.9993,56.93232 66.1199,117.29815 73.918,184.99233 1.0727,9.312 1.8711,27.18265 1.8711,41.88267 0,14.70001 -0.7984,32.57066 -1.8711,41.88266 -7.7981,67.69419 -31.9187,128.06001 -73.918,184.99234 -15.0082,20.34445 -51.991497,57.32773 -72.335857,72.33595 -56.93236,41.99931 -117.29818,66.1199 -184.99237,73.918 -20.22186,2.3295 -65.72886,2.2657 -85.63266,-0.1201 z m 90,-224.25885 0,-101.25 101.875,0 101.87499,0 0,-47.5 0,-47.5 -101.87499,0 -101.875,0 0,-101.25 0,-101.25 -46.875,0 -46.875,0 0,101.25 0,101.25 -101.875,0 -101.875,0 0,47.5 0,47.5 101.875,0 101.875,0 0,101.25 0,101.25 46.875,0 46.875,0 0,-101.25 z" fill="#15599D"></path></g></svg>