<svg fill="#15599D" xmlns="http://www.w3.org/2000/svg" xmlns:xlink="http://www.w3.org/1999/xlink" xmlns:sketch="http://www.bohemiancoding.com/sketch/ns" viewBox="0 0 32 32" version="1.1" x="0px" y="0px"><title>prev</title><desc>Created with Sketch.</desc><g stroke="none" stroke-width="1" fill="none" fill-rule="evenodd" sketch:type="MSPage"><g sketch:type="MSArtboardGroup" fill="#15599D"><path d="M16,32 C7.163444,32 0,24.836556 0,16 C0,7.163444 7.163444,0 16,0 C24.836556,0 32,7.163444 32,16 C32,24.836556 24.836556,32 16,32 L16,32 L16,32 Z M12.4818142,15.3918714 L17.728967,8.91217729 C17.95837,8.62888822 18.3790212,8.58362026 18.6651034,8.81528502 L20.2195948,10.0740873 C20.507704,10.3073935 20.5503852,10.724735 20.3194536,11.0099119 L16.15384,16.1540163 L20.1533089,21.4614908 C20.3726855,21.7526133 20.3148441,22.1717208 20.0208512,22.3932603 L18.4233752,23.5970448 C18.1272993,23.820154 17.712029,23.7606034 17.4911906,23.4675409 L12.4733722,16.808671 C12.1129506,16.3770519 12.0636754,15.9082298 12.4818142,15.3918714 L12.4818142,15.3918714 L12.4818142,15.3918714 Z" sketch:type="MSShapeGroup"></path></g></g></svg>