<svg fill="#FFFFFF" xmlns="http://www.w3.org/2000/svg" xmlns:xlink="http://www.w3.org/1999/xlink" version="1.1" x="0px" y="0px" viewBox="0 0 100 100" enable-background="new 0 0 100 100" xml:space="preserve"><path d="M71.133,17.867H28.867c-6.075,0-11,4.925-11,11v42.266c0,6.075,4.925,11,11,11h42.266c6.075,0,11-4.925,11-11V28.867  C82.133,22.792,77.208,17.867,71.133,17.867z M35.979,71.225c-3.096,0-5.606-2.511-5.606-5.606c0-3.097,2.51-5.606,5.606-5.606  c3.096,0,5.606,2.51,5.606,5.606C41.585,68.714,39.075,71.225,35.979,71.225z M35.979,55.607c-3.096,0-5.606-2.511-5.606-5.607  c0-3.096,2.51-5.606,5.606-5.606c3.096,0,5.606,2.511,5.606,5.606C41.585,53.097,39.075,55.607,35.979,55.607z M35.979,39.988  c-3.096,0-5.606-2.51-5.606-5.606c0-3.095,2.51-5.605,5.606-5.605c3.096,0,5.606,2.511,5.606,5.605  C41.585,37.479,39.075,39.988,35.979,39.988z M64.021,71.225c-3.098,0-5.607-2.511-5.607-5.606c0-3.097,2.51-5.606,5.607-5.606  c3.095,0,5.605,2.51,5.605,5.606C69.627,68.714,67.116,71.225,64.021,71.225z M64.021,55.607c-3.098,0-5.607-2.511-5.607-5.607  c0-3.096,2.51-5.606,5.607-5.606c3.095,0,5.605,2.511,5.605,5.606C69.627,53.097,67.116,55.607,64.021,55.607z M64.021,39.988  c-3.098,0-5.607-2.51-5.607-5.606c0-3.095,2.51-5.605,5.607-5.605c3.095,0,5.605,2.511,5.605,5.605  C69.627,37.479,67.116,39.988,64.021,39.988z"></path></svg>