<svg fill="#FFFFFF" xmlns:dc="http://purl.org/dc/elements/1.1/" xmlns:cc="http://creativecommons.org/ns#" xmlns:rdf="http://www.w3.org/1999/02/22-rdf-syntax-ns#" xmlns:svg="http://www.w3.org/2000/svg" xmlns="http://www.w3.org/2000/svg" xmlns:sodipodi="http://sodipodi.sourceforge.net/DTD/sodipodi-0.dtd" xmlns:inkscape="http://www.inkscape.org/namespaces/inkscape" version="1.1" x="0px" y="0px" viewBox="0 0 100 100"><g transform="translate(0,-952.36218)"><path style="color:#000000;enable-background:accumulate;" d="m 24.69941,961.91657 c -1.23885,2.4355 -2.37465,4.9945 -3.38572,7.6253 1.29674,1.0978 3.25872,2.9216 4.33988,3.6415 1.77494,0.7033 2.71261,0.7718 4.15521,0.5912 7.56281,-0.2366 11.50593,0.1442 18.86771,3.8905 0.46749,-2.9473 0.79787,-5.9346 0.98494,-8.9635 0.26277,-0.9917 -0.30447,-2.0042 -1.29273,-2.272 l -21.4224,-5.82 c -1.07197,-0.2454 -1.56974,0.2673 -2.24689,1.307 z m 48.35429,-1.3066 -21.4224,5.82 c -0.98826,0.2678 -1.5555,1.2803 -1.29273,2.272 0.18707,3.0289 0.51745,6.0162 0.98494,8.9635 7.36178,-3.7459 11.3049,-4.1271 18.86771,-3.8905 1.46013,0.1377 3.05732,0.064 4.15521,-0.5912 0.95323,-0.5788 1.92857,-1.6234 3.44728,-2.6767 l 1.10806,-0.4046 c -1.0622,-2.8302 -2.27452,-5.5774 -3.60118,-8.1855 -0.61573,-1.0223 -0.67715,-2.0361 -2.24689,-1.307 z m -53.30976,13.4136 c -2.77788,8.9012 -3.88082,18.5997 -1.90831,28.26003 0.39822,3.9534 1.25019,6.9255 1.84675,9.4614 l 9.32613,2.8322 c 1.88505,-2.1744 4.27079,-4.4474 6.64833,-7.4696 6.55951,-7.45323 10.29881,-16.08973 12.28095,-25.33423 -7.17889,-3.6942 -10.3941,-4.2532 -18.0059,-4.015 -2.13993,0.045 -4.60217,-0.1475 -6.30976,-1.1516 -1.46685,-0.8901 -2.8325,-1.854 -3.87819,-2.5832 z m 60.51212,0 c -1.04569,0.7292 -2.41134,1.6931 -3.87819,2.5832 -1.5301,0.9287 -3.66437,1.4687 -6.30976,1.1204 -7.42207,0.096 -13.17355,1.0767 -18.0059,4.0459 1.98214,9.2445 5.72144,17.881 12.28095,25.33423 2.37754,3.0222 4.76328,5.2951 6.64833,7.4696 l 9.32613,-2.8322 c 0.59656,-2.5358 1.44853,-5.508 1.84675,-9.4614 1.26255,-9.86733 0.55685,-20.14283 -1.90831,-28.25973 z m -59.92731,41.86093 c 0.0186,0.8825 -0.0718,1.7547 -0.30779,2.6454 l -3.81664,14.4412 C 15.49291,1035.6558 3.72143,1033.8903 3,1036.6125 l 28.53242,7.7497 c 0.72131,-2.7223 -10.34533,-7.1503 -9.63393,-9.835 0.49636,-1.873 3.36321,-12.73 3.81664,-14.4411 0.23757,-0.8966 0.60603,-1.7416 1.07727,-2.5522 z m 59.3425,0 -6.46365,1.6494 c 0.47124,0.8106 0.8397,1.6556 1.07727,2.5522 0.45343,1.7111 3.32028,12.5681 3.81664,14.4411 0.7114,2.6847 -10.35524,7.1127 -9.63393,9.835 L 97,1036.6125 c -0.72143,-2.7222 -12.49291,-0.9567 -13.20432,-3.6414 l -3.81664,-14.4412 c -0.23602,-0.8907 -0.32644,-1.7629 -0.30779,-2.6454 z" fill="#FFFFFF" stroke="none" marker="none" visibility="visible" display="inline" overflow="visible"></path></g></svg>