<svg fill="#FFFFFF" xmlns="http://www.w3.org/2000/svg" viewBox="0 0 64 64" x="0px" y="0px"><g><path d="M32.847,20.881,39,16.486V9.514L33.056,5.268a20.063,20.063,0,0,0-8.724,6.34l2.207,6.984Z"></path><path d="M22.893,13.693c-.056.092-.114.183-.169.277-.156.266-.309.534-.452.806q-.3.569-.558,1.157c-.084.187-.163.376-.241.565-.192.472-.372.95-.528,1.44-.038.117-.069.237-.105.356-.154.517-.293,1.041-.406,1.574-.01.047-.022.093-.032.14-.118.579-.2,1.17-.271,1.767-.011.1-.024.2-.033.3-.007.072,0,.147-.012.22l4.479-3.309Z"></path><path d="M44.528,4.537c-.036-.009-.071-.02-.108-.028-.26-.06-.52-.112-.781-.161-.474-.088-.95-.166-1.434-.22-.151-.017-.3-.026-.453-.039-.549-.048-1.1-.082-1.661-.084-.061,0-.121,0-.182,0-.56,0-1.112.036-1.661.084-.151.013-.3.022-.453.039-.484.054-.96.132-1.434.22-.261.049-.521.1-.781.161-.037.008-.072.019-.108.028L40,7.771Z"></path><path d="M31.589,34l3.277-4.175-2.641-7.042-6.327-2.3-5.87,4.336A19.934,19.934,0,0,0,22.689,34Z"></path><path d="M59.914,22.294c-.007-.073-.005-.148-.012-.22-.009-.1-.022-.2-.033-.3-.067-.6-.153-1.188-.271-1.768-.009-.046-.022-.091-.032-.137-.113-.534-.252-1.058-.406-1.576-.036-.119-.067-.239-.1-.356-.156-.49-.336-.968-.528-1.44-.078-.189-.157-.378-.241-.565q-.261-.588-.558-1.157c-.143-.272-.3-.54-.452-.806-.055-.094-.113-.185-.169-.277l-1.672,5.292Z"></path><path d="M41,16.486l6.153,4.395,6.308-2.289,2.207-6.984a20.063,20.063,0,0,0-8.724-6.34L41,9.514Z"></path><polygon points="40 18.229 34.206 22.367 36.693 29 43.307 29 45.794 22.367 40 18.229"></polygon><polygon points="34.131 34 45.869 34 43.514 31 36.486 31 34.131 34"></polygon><path d="M41,38a1,1,0,0,1,1,1,3,3,0,0,0,3,3,1,1,0,0,1,1,1v6a1,1,0,0,1-1,1,3,3,0,0,0-3,3,1,1,0,0,1-1,1H31.377A8.375,8.375,0,0,1,26,56H48V36H26a8.375,8.375,0,0,1,5.377,2Z"></path><path d="M20.623,54H11a1,1,0,0,1-1-1,3,3,0,0,0-3-3,1,1,0,0,1-1-1V43a1,1,0,0,1,1-1,3,3,0,0,0,3-3,1,1,0,0,1,1-1h9.623A8.375,8.375,0,0,1,26,36H4V56H26A8.375,8.375,0,0,1,20.623,54Z"></path><path d="M50,57a1,1,0,0,1-1,1H8v2H52V40H50Z"></path><path d="M11.9,40A5.013,5.013,0,0,1,8,43.9v4.2A5.013,5.013,0,0,1,11.9,52h6.918a10.815,10.815,0,0,1,0-12Z"></path><path d="M54.1,20.488l-6.327,2.3-2.641,7.042L48.411,34H49a1,1,0,0,1,1,1v.125l6.657-.053a19.873,19.873,0,0,0,3.32-10.244Z"></path><path d="M50,38h3a.983.983,0,0,1,.811.447q.68-.651,1.3-1.362L50,37.125Z"></path><path d="M40.1,52A5.013,5.013,0,0,1,44,48.1V43.9A5.013,5.013,0,0,1,40.1,40H33.183a10.815,10.815,0,0,1,0,12Z"></path><ellipse cx="26" cy="46" rx="7" ry="8"></ellipse><path d="M26,49a1,1,0,0,1-1-1H23a3,3,0,0,0,2,2.816V52h2V50.816A2.993,2.993,0,0,0,26,45a1,1,0,1,1,1-1h2a3,3,0,0,0-2-2.816V40H25v1.184A2.993,2.993,0,0,0,26,47a1,1,0,0,1,0,2Z"></path></g></svg>