<svg fill="#FFFFFF" xmlns="http://www.w3.org/2000/svg" xmlns:xlink="http://www.w3.org/1999/xlink" version="1.1" x="0px" y="0px" viewBox="0 0 100 100" style="enable-background:new 0 0 100 100;" xml:space="preserve"><g><path d="M83.2,58.6V47.3V34.4V23.6c0-6.6-5.4-12-12-12h-1V8.2c0-3.3-2.7-6-6.1-6s-6.1,2.7-6.1,6v3.4H30.9V8.2c0-3.3-2.7-6-6.1-6   s-6.1,2.7-6.1,6v3.4h-1c-6.6,0-12,5.4-12,12v10.8v12.9v18.8v4V77c0,6.6,5.4,12,12,12h6.6h18.1h4h9.9c3.8,5.3,10,8.8,17,8.8   c11.5,0,20.8-9.3,20.8-20.8C94.2,69.1,89.8,62.2,83.2,58.6z M73.4,93.9c-9.3,0-16.8-7.6-16.8-16.8s7.6-16.8,16.8-16.8   S90.2,67.7,90.2,77S82.7,93.9,73.4,93.9z M24.8,6.1c1.1,0,2.1,0.9,2.1,2v10.7c0,1.1-0.9,2.1-2.1,2.1s-2.1-0.9-2.1-2.1V8.2   C22.8,7.1,23.7,6.1,24.8,6.1z M64.2,6.1c1.1,0,2.1,0.9,2.1,2v10.7c0,1.1-0.9,2.1-2.1,2.1s-2.1-0.9-2.1-2.1V8.2   C62.1,7.1,63,6.1,64.2,6.1z M79.2,57c-1.8-0.5-3.8-0.8-5.8-0.8c-3.2,0-6.1,0.7-8.8,2v-6.8h14.6V57z M60.6,47.3H46.5V34.4h14.1V47.3   z M60.6,51.3v9.3c-2,1.5-3.6,3.4-4.9,5.6h-9.2V51.3H60.6z M42.5,34.4v12.9H28.4V34.4H42.5z M42.5,51.3v14.8H28.4V51.3H42.5z    M64.6,47.3V34.4h14.6v12.9H64.6z M24.4,34.4v12.9H9.8V34.4H24.4z M9.8,51.3h14.6v14.8H9.8V51.3z M9.8,70.2h14.6V85h-6.6   c-4.4,0-8-3.6-8-8V70.2z M28.4,70.2h14.1V85H28.4V70.2z M46.5,70.2h7.3c-0.7,2.1-1.2,4.4-1.2,6.8c0,2.8,0.6,5.5,1.6,8h-7.7V70.2z"></path><path d="M72,77h-9.5c-1.1,0-2,0.9-2,2s0.9,2,2,2H74c1.1,0,2-0.9,2-2V63.7c0-1.1-0.9-2-2-2s-2,0.9-2,2V77z"></path></g></svg>