<svg fill="#FFFFFF" xmlns="http://www.w3.org/2000/svg" xmlns:xlink="http://www.w3.org/1999/xlink" version="1.1" x="0px" y="0px" viewBox="0 0 100 100" enable-background="new 0 0 100 100" xml:space="preserve"><path d="M29.9,45.2c0,1-0.8,1.8-1.8,1.8h-5.2c-1,0-1.8-0.8-1.8-1.8v-5.2c0-1,0.8-1.8,1.8-1.8h5.2c1,0,1.8,0.8,1.8,1.8V45.2z   M41.9,40.1c0-1-0.8-1.8-1.8-1.8h-5.2c-1,0-1.8,0.8-1.8,1.8v5.2c0,1,0.8,1.8,1.8,1.8h5.2c1,0,1.8-0.8,1.8-1.8V40.1z M53.9,40.1  c0-1-0.8-1.8-1.8-1.8h-5.2c-1,0-1.8,0.8-1.8,1.8v5.2c0,1,0.8,1.8,1.8,1.8h5.2c1,0,1.8-0.8,1.8-1.8V40.1z M41.9,51.8  c0-1-0.8-1.8-1.8-1.8h-5.2c-1,0-1.8,0.8-1.8,1.8v5.2c0,1,0.8,1.8,1.8,1.8h5.2c1,0,1.8-0.8,1.8-1.8V51.8z M53.9,51.8  c0-1-0.8-1.8-1.8-1.8h-5.2c-1,0-1.8,0.8-1.8,1.8v5.2c0,1,0.8,1.8,1.8,1.8h5.2c1,0,1.8-0.8,1.8-1.8V51.8z M66,56.9v-5.2  c0-1-0.8-1.8-1.8-1.8H59c-1,0-1.8,0.8-1.8,1.8v5.2c0,1,0.8,1.8,1.8,1.8h5.2C65.1,58.8,66,57.9,66,56.9z M28.1,49.9h-5.2  c-1,0-1.8,0.8-1.8,1.8v5.2c0,1,0.8,1.8,1.8,1.8h5.2c1,0,1.8-0.8,1.8-1.8v-5.2C29.9,50.8,29.1,49.9,28.1,49.9z M52.1,61.6h-5.2  c-1,0-1.8,0.8-1.8,1.8v5.2c0,1,0.8,1.8,1.8,1.8h5.2c1,0,1.8-0.8,1.8-1.8v-5.2C53.9,62.4,53.1,61.6,52.1,61.6z M40.1,61.6h-5.2  c-1,0-1.8,0.8-1.8,1.8v5.2c0,1,0.8,1.8,1.8,1.8h5.2c1,0,1.8-0.8,1.8-1.8v-5.2C41.9,62.4,41.1,61.6,40.1,61.6z M23.5,3.1  c-1.6,0-2.9,1.3-2.9,2.9v8.8c0,1.6,1.3,2.9,2.9,2.9h4c1.6,0,2.9-1.3,2.9-2.9V6c0-1.6-1.3-2.9-2.9-2.9H23.5z M59.6,3.1  c-1.6,0-2.9,1.3-2.9,2.9v8.8c0,1.6,1.3,2.9,2.9,2.9h4c1.6,0,2.9-1.3,2.9-2.9V6c0-1.6-1.3-2.9-2.9-2.9H59.6z M8.2,84.8H57  c-0.7-2.2-1.1-4.5-1.1-6.9c0-0.1,0-0.2,0-0.3H9.1V30H78v24.7c0.4,0,0.8,0,1.1,0c2.1,0,4.2,0.3,6.1,0.8V17.4c0-3.5-2.8-6.3-6.3-6.3  h-8.7v3.8c0,3.6-2.9,6.5-6.5,6.5h-4c-3.6,0-6.5-2.9-6.5-6.5V11H34v3.8c0,3.6-2.9,6.5-6.5,6.5h-4c-3.6,0-6.5-2.9-6.5-6.5V11H8.2  c-3.5,0-6.3,2.8-6.3,6.3v61.1C1.9,82,4.7,84.8,8.2,84.8z M98.1,77.9c0,10.5-8.5,19-19,19c-10.5,0-19-8.5-19-19c0-10.5,8.5-19,19-19  C89.6,58.8,98.1,67.4,98.1,77.9z M88.8,73.7l-3.7-3.7l-8.5,8.5l-3.6-3.6l-3.7,3.7l3.6,3.6l3.7,3.7l3.7-3.7L88.8,73.7z"></path></svg>