<svg fill="#15599D" xmlns="http://www.w3.org/2000/svg" xmlns:xlink="http://www.w3.org/1999/xlink" version="1.1" x="0px" y="0px" viewBox="0 0 91 91" style="enable-background:new 0 0 91 91;" xml:space="preserve"><g><path d="M83.7,64.5c3.1-2.4,4.3-5.9,5.4-9.6c0.3-1-0.6-2.2-1.6-2.2c-2.9,0.1-6.3,0.6-9,2c0.1-1,0.2-2,0.2-3   c3.1-0.2,6.2-1.8,8.1-4.1c2.6-3.2,2.3-7.7,1.9-11.5c-0.1-0.9-0.8-1.4-1.6-1.2c-3.6,0.7-7.2,3.3-9.2,6.7c-0.2-1.1-0.5-2.1-0.8-3.2   l0.1-0.1c2.3-2.5,4.4-5.6,4.9-9.1c0.5-3.9-1.5-6.9-3.6-9.9c-0.4-0.6-1.2-0.9-1.9-0.5c-3,1.9-4.9,6.1-4.9,10.1   c-0.7-0.7-1.4-1.4-2.1-2c1.4-3.2,0.7-8.3-1.4-11c-2.7-3.5-6.4-5.1-10.7-5.7c-0.8-0.1-1.6,0.8-1.6,1.6c0,3.8,0.6,8.1,3,11.2   c1.6,2.1,4.3,4.1,7,4.3c3.1,3.1,5.6,6.4,6.9,10.7c1.9,6.1,2.1,13.6,0.2,19.7c-2.3,7.4-9.5,15.9-16.9,18.2c-4,1.3-1.6,7.4,2.3,5.4   c1.7-0.9,3.4-1.9,5-3c2.2,2.1,5.1,3.1,8.2,2.6c1.6-0.3,3.2-0.9,4.5-2c1.5-1.3,2.5-3.7,4.4-4.5c1.5-0.6,1.6-2.6,0-3.2   c-2.6-1-5.3-1.4-8.1-1.3c0.6-0.8,1.2-1.6,1.7-2.4C77.2,68.6,81.5,66.3,83.7,64.5z M86.1,37.8c0,2.4,0.1,5.1-1.2,7.2   c-1.2,2-3.9,3.2-6.2,2.9c0-0.8-0.1-1.5-0.2-2.3C80.3,42.1,82.4,39.1,86.1,37.8z M66.7,24.9C66.7,24.9,66.6,24.9,66.7,24.9   c-2.2-1.2-4.4-2.2-5.7-4.4c-1.2-2.1-1.7-4.5-1.9-6.9c2.3,0.6,4.2,1.6,5.8,3.5C66.5,18.7,67.6,22.5,66.7,24.9z M77.8,58.8   c1.9-1.7,4.5-2.5,7.2-2.6c-0.7,1.8-1.3,3.5-2.8,4.9c-1,1-2.3,1.7-3.6,2.2c-0.9,0.4-1.7,0.5-2.6,0.6C76.8,62.3,77.4,60.6,77.8,58.8z    M74.7,28.2c0.1-2.5,0.6-4.7,2.3-6.4c1.3,2.2,2.5,4.4,1.9,7c-0.5,2.1-1.9,3.9-3.3,5.6c-0.1-0.1-0.1-0.3-0.2-0.4   C75.2,32.1,74.6,30.2,74.7,28.2z M76.5,73.5c-0.5,0.6-1.1,1.2-1.7,1.8c-2.4,2.5-5.7,2.7-8.3,0.8c1-0.8,1.9-1.6,2.7-2.5   c0.3-0.1,0.6-0.1,0.8-0.2C72.2,73,74.4,73.1,76.5,73.5z"></path><path d="M9.6,71.2c-1.6,0.6-1.6,2.6,0,3.2c1.8,0.7,2.8,3.1,4.2,4.4c1.3,1.1,3,1.9,4.6,2.1c3.1,0.5,6-0.5,8.2-2.6   c1.6,1.1,3.3,2.1,5,3c3.8,1.9,6.4-4.1,2.3-5.4C26.5,73.6,19.4,65.1,17,57.7c-1.9-6-1.7-13.3,0.1-19.3c1.4-4.5,3.8-7.8,7-11.1   c2.8-0.2,5.4-2.2,7-4.3c2.4-3.1,3-7.4,3-11.2c0-0.8-0.7-1.7-1.6-1.6c-4.3,0.6-8,2.2-10.7,5.7c-2.1,2.7-2.9,7.7-1.4,11   c-0.8,0.6-1.5,1.3-2.1,2c-0.1-4-1.9-8.2-4.9-10.1c-0.7-0.4-1.5-0.1-1.9,0.5c-2.1,3.1-4.1,6-3.6,9.9c0.5,3.5,2.6,6.6,4.9,9.1   l0.1,0.1c-0.3,1-0.6,2.1-0.8,3.1c-1.9-3.4-5.6-5.9-9.2-6.7C2,34.6,1.3,35.2,1.3,36c-0.4,3.8-0.7,8.4,1.9,11.5   c1.9,2.4,5,3.9,8.1,4.1c0,1,0.1,2,0.2,3c-2.7-1.4-6.1-1.8-9-1.9c-1.1,0-2,1.1-1.6,2.2c1.2,3.6,2.3,7.1,5.4,9.6   c2.3,1.8,6.6,4.2,9.6,3c0.5,0.8,1.1,1.6,1.7,2.4C15,69.8,12.2,70.2,9.6,71.2z M25.2,17.1c1.7-1.8,3.6-2.9,5.8-3.5   c-0.2,2.4-0.6,4.8-1.9,6.9c-1.3,2.2-3.5,3.2-5.6,4.4c0,0,0,0-0.1,0C22.6,22.5,23.7,18.7,25.2,17.1z M11.4,47.8   c-2.3,0.3-5-1-6.2-2.9c-1.3-2-1.2-4.7-1.2-7.2c3.7,1.3,5.8,4.4,7.5,7.8C11.5,46.3,11.4,47.1,11.4,47.8z M11.5,63.3   C10.2,62.7,9,62,7.9,61.1c-1.4-1.4-2.1-3.1-2.8-4.9c2.6,0.2,5.2,1,7.2,2.6c0.4,1.8,1,3.5,1.7,5.1C13.2,63.8,12.4,63.7,11.5,63.3z    M14.8,34c-0.1,0.1-0.1,0.3-0.2,0.4c-1.5-1.6-2.8-3.4-3.3-5.6c-0.6-2.6,0.5-4.9,1.9-7c1.7,1.6,2.2,3.9,2.3,6.4   C15.6,30.2,15,32.1,14.8,34z M20.1,73.5c0.3,0.1,0.5,0.1,0.8,0.2c0.9,0.9,1.8,1.7,2.7,2.5c-2.6,1.9-5.9,1.7-8.3-0.8   c-0.6-0.6-1.1-1.2-1.7-1.8C15.8,73.1,18,73,20.1,73.5z"></path><path d="M54.5,64c2,1.9,5.1-1.1,3.1-3.1c0.9,0.8-6.8-6.6-8.5-8.2c0.9-0.8,1.7-1.7,2.4-2.6c1.5,0.9,3.2,1.4,4.8,0.9   c3.6-1.2,6.4-4.8,9.2-7.2c2.1-1.8-0.9-4.9-3.1-3.1c-1.8,1.5-3.4,3.3-5.3,4.8C56.6,46,55.5,47,54.7,47s-2.6-1.7-3-2.3   c-1.6-2.3,0.6-4,2.2-5.5c1.6-1.5,3.2-2.9,4.4-4.8c0.8-1.2-0.7-2.4-1.8-1.8C51.4,35,44,41.2,48.1,47c-0.9,0.7-1.8,1.5-2.6,2.3   c-4.8-4.6-9.8-9.1-14.3-14c-1-1.1-3.2-0.6-3.4,0.9c-0.7,4.3-0.4,9.5,2.1,13.3c1.8,2.7,5.7,4.6,8.9,3.4c0.4-0.1,0.6-0.6,0.2-0.9   c-1.8-1.5-4.4-2.4-5.7-4.3c-1.2-1.7-1.7-3.9-1.8-6.1c3.6,3.7,7.4,7.2,11.1,10.8c-2.8,2.7-6.1,5.2-8.5,8.2c-2,2.4,1,5.3,3.4,3.4   c3.1-2.4,5.7-5.6,8.5-8.3C47.5,57.3,55.3,64.8,54.5,64z"></path></g></svg>