<svg fill="#FFFFFF" xmlns="http://www.w3.org/2000/svg" xmlns:xlink="http://www.w3.org/1999/xlink" version="1.1" x="0px" y="0px" viewBox="0 0 100 100" enable-background="new 0 0 100 100" xml:space="preserve"><path d="M94,31.7c-2.8-2.6-6.5-3.2-9.6-1.8c-0.1,0-0.1,0.1-0.2,0.1c-0.2,0.1-0.5,0.2-0.7,0.4c-0.1,0.1-0.2,0.2-0.4,0.2  c-0.2,0.1-0.3,0.2-0.5,0.4c-0.1,0.1-0.3,0.2-0.4,0.3c-0.2,0.1-0.3,0.3-0.4,0.4c-0.1,0.1-0.2,0.2-0.4,0.4c-0.2,0.2-0.3,0.4-0.5,0.6  c-0.1,0.1-0.2,0.2-0.2,0.3c-1.9,2.6-2.5,6-1.8,9.1c-0.1,0.1-0.1,0.1-0.2,0.2c-0.3,0.3-0.9,0.4-1.3,0.6c-2.3,1-4.4,2.7-5.7,5.2  c-1.1,2-1.5,4.5-1.5,6.9c0,0.4,0,0.7,0.1,1.1c0.1,0.5,0.2,0.9,0.1,1.4c0,0.1,0,0.2-0.1,0.3l-0.2,0.3C70,58,69.9,58,69.8,58  c0,0,0,0,0,0c-0.4-0.1-0.8-0.5-1.2-0.8c-0.4-0.3-0.8-0.7-1.3-1c0,0-0.1-0.1-0.1-0.1c-0.6-0.5-1.3-1-1.9-1.4c-0.8-0.6-1.6-1.3-2.4-2  l-0.1-0.1c-1.6-1.3-3.3-2.8-4.7-4.6c-1.3-1.6-2.4-3.5-3.3-5.5c-0.1-0.3-0.2-0.5-0.3-0.8c0.3-0.2,0.5-0.4,0.7-0.5  c0.4-0.3,1.1-0.8,1.5-1c0.6-0.3,1.2-0.5,1.3-1.3c0-0.3,0-0.7-0.1-1c0-0.1-0.1-0.2-0.1-0.4c0-0.2,0.1-0.4,0.3-0.5  c0.2-0.2,0.3-0.4,0.4-0.7c0.1-0.4,0-0.9-0.1-1.3c-0.1-0.3-0.4-0.7-0.4-1.1c0.1-0.5,0.5-1,0.6-1.5c0.2-0.5,0.2-1.1-0.1-1.6  c-0.1-0.1-0.2-0.2-0.3-0.4c-0.1-0.4,0.4-0.9,0.6-1.3c0.2-0.5,0.1-1.1-0.1-1.6c-0.2-0.4-0.7-0.6-1.1-0.8c-0.1-0.1-0.9-0.2-0.9-0.2  c0,0,0-0.4,0-0.5c0-0.5-0.5-0.7-0.9-0.7c-0.5-0.1-1,0-1.4-0.1c-0.4,0-0.7-0.3-1.1-0.3c-0.9,0.1-1.2,0.7-1.7,1.4c0,0-0.5-0.5-0.7-0.6  c-0.2-0.1-1.2-0.4-1.4-0.4c-0.8,0-1.9,0.4-2.1,1.3c0,0.2-0.1,0.4-0.1,0.6c-0.1,0.2-0.5,0.7-0.7,0.7c-0.6-0.2-1.6-0.2-1.9,0.6  c-0.3,0.7,0.1,1.8-0.8,2c-0.3,0.1-0.6,0.3-0.8,0.6c-0.2,0.3-0.1,0.6-0.1,1c0,0.5-0.5,0.8-0.7,1.1c-0.3,0.5-0.2,1.2,0,1.7  c0.2,0.5,0.3,1,0.6,1.5c0.4,0.6,0.5,1.4,0.9,2c0.3,0.5,0.6,1,0.9,1.4c0.1,0.1,0.6,0.6,1.2,1.2c-0.1,0.2-0.1,0.3-0.2,0.5  c-0.1,0.4-0.3,0.7-0.4,1.1c-0.8,2-2,3.9-3.3,5.5c-1.4,1.8-3.1,3.3-4.7,4.6l-0.1,0.1c-0.8,0.7-1.6,1.3-2.4,2c-0.6,0.5-1.2,1-1.9,1.4  c0,0-0.1,0.1-0.1,0.1c-0.4,0.3-0.8,0.7-1.3,1c-0.3,0.3-0.7,0.7-1.2,0.8c0,0,0,0,0,0c-0.1,0-0.3,0-0.4-0.1l-0.2-0.3  c0-0.1-0.1-0.2-0.1-0.3c-0.1-0.5,0.1-1,0.1-1.4c0-0.4,0.1-0.7,0.1-1.1c0-3.5-1-7.3-3.3-9.7c-1.5-1.5-3.4-2.4-5.2-3  C21.2,42.1,21.1,42,21,42c0.7-3.1,0.1-6.5-1.8-9.1c-0.1-0.1-0.2-0.2-0.2-0.3c-0.1-0.2-0.3-0.4-0.5-0.6c-0.1-0.1-0.2-0.2-0.4-0.4  c-0.1-0.1-0.3-0.3-0.4-0.4c-0.1-0.1-0.3-0.2-0.4-0.3c-0.2-0.1-0.3-0.2-0.5-0.4c-0.1-0.1-0.2-0.2-0.4-0.2c-0.2-0.1-0.5-0.2-0.7-0.4  c-0.1,0-0.1-0.1-0.2-0.1c-3.1-1.4-6.8-0.8-9.6,1.8C3.2,34.3,2,38.3,2.7,42c-0.1,0.1,0.1,0.7,0.3,1.2c0.1,0.4,0.3,0.8,0.3,0.9  c0.4,0.9,0.8,1.8,1.4,2.6c0.4,0.5,1,1.3,1,1.3l0.2,0.3c1.2,1.7,2.3,3.4,3.5,5c0.4,0.6,0.8,1.2,1.2,1.7c0.2,0.2,0.3,0.4,0.5,0.6  c0.8,1.1,1.6,2.2,2.5,3.2c0.3,0.4,0.6,0.8,0.9,1.2c0.7,0.9,1.5,1.8,2.3,2.7c2.9,3.4,6.1,6.8,9.4,9.4c2.1,1.7,4.1,3.1,6.9,2.5  c2.8-0.6,4.3-3.1,6.3-5c0,0,0.1-0.1,0.1-0.1c0.6-0.6,1.3-1.3,1.8-2c0.1-0.1,0.1-0.2,0.2-0.2c0.3-0.4,0.6-0.8,0.9-1.2  c0.3-0.4,0.6-0.9,0.9-1.3c1.9-3.1,3.7-6.8,5.3-10.4c0.4-1,0.9-2,1.3-3c0.1-0.2,0.2-0.4,0.2-0.5c0.1,0.2,0.1,0.4,0.2,0.5  c0.4,1,0.9,2,1.3,3c1.6,3.6,3.4,7.3,5.3,10.4c0.3,0.5,0.6,0.9,0.9,1.3c0.3,0.4,0.6,0.8,0.9,1.2c0.1,0.1,0.1,0.2,0.2,0.2  c0.6,0.7,1.2,1.4,1.8,2c0,0,0.1,0.1,0.1,0.1c2,2,5.1,5.3,8,5.2c5.2-0.1,10.6-7.5,14-11.4c0.2-0.2,0.4-0.5,0.6-0.7  c0.8-0.9,1.5-1.8,2.3-2.7c0.3-0.4,0.6-0.8,0.9-1.2c0.8-1.1,1.7-2.1,2.5-3.2c0.2-0.2,0.3-0.4,0.5-0.6c0.4-0.6,0.8-1.1,1.2-1.7  c1.1-1.6,2.3-3.3,3.5-5l0.2-0.3c0,0,0.6-0.8,1-1.3c0.5-0.8,1-1.7,1.4-2.6c0-0.1,0.2-0.5,0.3-0.9c0.2-0.5,0.4-1.1,0.3-1.2  C98,38.3,96.8,34.3,94,31.7z"></path></svg>